<?xml version="1.0" encoding="UTF-8" standalone="no"?>
<svg width="299px" height="45px" viewBox="0 0 299 45" version="1.1" xmlns="http://www.w3.org/2000/svg" xmlns:xlink="http://www.w3.org/1999/xlink">
    <!-- Generator: Sketch 3.8.3 (29802) - http://www.bohemiancoding.com/sketch -->
    <title>Group 5</title>
    <desc>Created with Sketch.</desc>
    <defs></defs>
    <g id="Page-1" stroke="none" stroke-width="1" fill="none" fill-rule="evenodd">
        <g id="Group-5">
            <polygon id="Shape" fill="#333333" points="145.196809 15.606383 147.68617 15.606383 151.109043 26.4255319 151.156915 26.4255319 154.651596 15.606383 157.093085 15.606383 152.425532 29.2739362 149.768617 29.2739362"></polygon>
            <path d="M170.832447,22.4521277 C170.832447,26.3537234 168.390957,29.6090426 164.273936,29.6090426 C160.180851,29.6090426 157.715426,26.3537234 157.715426,22.4521277 C157.715426,18.5505319 160.156915,15.2952128 164.273936,15.2952128 C168.367021,15.2952128 170.832447,18.5505319 170.832447,22.4521277 L170.832447,22.4521277 Z M160.132979,22.4521277 C160.132979,25.0851064 161.353723,27.6702128 164.297872,27.6702128 C167.218085,27.6702128 168.462766,25.0851064 168.462766,22.4521277 C168.462766,19.8191489 167.242021,17.2340426 164.297872,17.2340426 C161.353723,17.2340426 160.132979,19.8191489 160.132979,22.4521277 L160.132979,22.4521277 Z M161.569149,14.0505319 L161.569149,11.9680851 L163.74734,11.9680851 L163.74734,14.0265957 L161.569149,14.0265957 L161.569149,14.0505319 Z M167.026596,11.9680851 L167.026596,14.0265957 L164.848404,14.0265957 L164.848404,11.9680851 L167.026596,11.9680851 L167.026596,11.9680851 Z" id="Shape" fill="#333333"></path>
            <path d="M173.010638,15.606383 L179.545213,15.606383 C182.537234,15.606383 184.069149,16.9946809 184.069149,19.2925532 C184.069149,21.9255319 182.25,22.5957447 181.819149,22.7393617 L181.819149,22.787234 C182.632979,22.9069149 183.853723,23.5053191 183.853723,25.6835106 C183.853723,27.2632979 184.093085,28.7234043 184.595745,29.2739362 L182.034574,29.2739362 C181.675532,28.6755319 181.675532,27.9335106 181.675532,27.2632979 C181.675532,24.75 181.148936,23.6489362 178.946809,23.6489362 L175.428191,23.6489362 L175.428191,29.2739362 L173.034574,29.2739362 L173.034574,15.606383 L173.010638,15.606383 Z M175.404255,21.8297872 L179.329787,21.8297872 C180.837766,21.8297872 181.675532,21.087766 181.675532,19.6515957 C181.675532,17.9042553 180.550532,17.5691489 179.305851,17.5691489 L175.428191,17.5691489 L175.428191,21.8297872 L175.404255,21.8297872 Z" id="Shape" fill="#333333"></path>
            <path d="M198.861702,22.4521277 C198.861702,26.3537234 196.420213,29.6090426 192.303191,29.6090426 C188.210106,29.6090426 185.744681,26.3537234 185.744681,22.4521277 C185.744681,18.5505319 188.18617,15.2952128 192.303191,15.2952128 C196.420213,15.2952128 198.861702,18.5505319 198.861702,22.4521277 L198.861702,22.4521277 Z M188.162234,22.4521277 C188.162234,25.0851064 189.382979,27.6702128 192.327128,27.6702128 C195.24734,27.6702128 196.492021,25.0851064 196.492021,22.4521277 C196.492021,19.8191489 195.271277,17.2340426 192.327128,17.2340426 C189.382979,17.2340426 188.162234,19.8191489 188.162234,22.4521277 L188.162234,22.4521277 Z M189.598404,14.0505319 L189.598404,11.9680851 L191.776596,11.9680851 L191.776596,14.0265957 L189.598404,14.0265957 L189.598404,14.0505319 Z M195.079787,11.9680851 L195.079787,14.0265957 L192.901596,14.0265957 L192.901596,11.9680851 L195.079787,11.9680851 L195.079787,11.9680851 Z" id="Shape" fill="#333333"></path>
            <path d="M202.619681,24.7260638 C202.619681,26.8324468 204.175532,27.6462766 206.090426,27.6462766 C208.196809,27.6462766 208.986702,26.6170213 208.986702,25.587766 C208.986702,24.5345745 208.412234,24.1037234 207.861702,23.912234 C206.904255,23.5531915 205.659574,23.2898936 203.792553,22.787234 C201.446809,22.1648936 200.776596,20.7287234 200.776596,19.3164894 C200.776596,16.587766 203.31383,15.2952128 205.779255,15.2952128 C208.62766,15.2952128 211.021277,16.8031915 211.021277,19.6515957 L208.62766,19.6515957 C208.507979,17.8803191 207.335106,17.2340426 205.683511,17.2340426 C204.582447,17.2340426 203.170213,17.6409574 203.170213,19.0053191 C203.170213,19.962766 203.816489,20.4893617 204.797872,20.7765957 C205.013298,20.8244681 208.029255,21.6143617 208.74734,21.8297872 C210.542553,22.356383 211.404255,23.8882979 211.404255,25.3244681 C211.404255,28.3882979 208.675532,29.6090426 205.970745,29.6090426 C202.859043,29.6090426 200.321809,28.125 200.273936,24.7260638 L202.619681,24.7260638 L202.619681,24.7260638 Z" id="Shape" fill="#333333"></path>
            <polygon id="Shape" fill="#333333" points="213.462766 15.606383 215.856383 15.606383 215.856383 21.8297872 221.93617 15.606383 224.880319 15.606383 219.422872 21.0638298 225.263298 29.2739362 222.271277 29.2739362 217.795213 22.7393617 215.832447 24.6781915 215.832447 29.2739362 213.43883 29.2739362 213.43883 15.606383"></polygon>
            <polygon id="Shape" fill="#333333" points="226.579787 15.606383 236.417553 15.606383 236.417553 17.6648936 228.973404 17.6648936 228.973404 21.2553191 235.867021 21.2553191 235.867021 23.2180851 228.973404 23.2180851 228.973404 27.2154255 236.56117 27.2154255 236.56117 29.2739362 226.579787 29.2739362"></polygon>
            <path d="M238.643617,15.606383 L245.178191,15.606383 C248.170213,15.606383 249.702128,16.9946809 249.702128,19.2925532 C249.702128,21.9255319 247.882979,22.5957447 247.452128,22.7393617 L247.452128,22.787234 C248.265957,22.9069149 249.486702,23.5053191 249.486702,25.6835106 C249.486702,27.2632979 249.726064,28.7234043 250.228723,29.2739362 L247.667553,29.2739362 C247.308511,28.6755319 247.308511,27.9335106 247.308511,27.2632979 C247.308511,24.75 246.781915,23.6489362 244.579787,23.6489362 L241.037234,23.6489362 L241.037234,29.2739362 L238.643617,29.2739362 L238.643617,15.606383 L238.643617,15.606383 Z M241.037234,21.8297872 L244.962766,21.8297872 C246.470745,21.8297872 247.308511,21.087766 247.308511,19.6515957 C247.308511,17.9042553 246.183511,17.5691489 244.93883,17.5691489 L241.037234,17.5691489 L241.037234,21.8297872 L241.037234,21.8297872 Z" id="Shape" fill="#333333"></path>
            <polygon id="Shape" fill="#333333" points="252.119681 15.606383 261.957447 15.606383 261.957447 17.6648936 254.513298 17.6648936 254.513298 21.2553191 261.406915 21.2553191 261.406915 23.2180851 254.513298 23.2180851 254.513298 27.2154255 262.101064 27.2154255 262.101064 29.2739362 252.119681 29.2739362"></polygon>
            <path d="M265.739362,24.7260638 C265.739362,26.8324468 267.295213,27.6462766 269.210106,27.6462766 C271.316489,27.6462766 272.106383,26.6170213 272.106383,25.587766 C272.106383,24.5345745 271.531915,24.1037234 270.981383,23.912234 C270.023936,23.5531915 268.779255,23.2898936 266.912234,22.787234 C264.566489,22.1648936 263.896277,20.7287234 263.896277,19.3164894 C263.896277,16.587766 266.433511,15.2952128 268.898936,15.2952128 C271.74734,15.2952128 274.140957,16.8031915 274.140957,19.6515957 L271.74734,19.6515957 C271.62766,17.8803191 270.454787,17.2340426 268.803191,17.2340426 C267.702128,17.2340426 266.289894,17.6409574 266.289894,19.0053191 C266.289894,19.962766 266.93617,20.4893617 267.917553,20.7765957 C268.132979,20.8244681 271.148936,21.6143617 271.867021,21.8297872 C273.662234,22.356383 274.523936,23.8882979 274.523936,25.3244681 C274.523936,28.3882979 271.795213,29.6090426 269.090426,29.6090426 C265.978723,29.6090426 263.441489,28.125 263.393617,24.7260638 L265.739362,24.7260638 L265.739362,24.7260638 Z" id="Shape" fill="#333333"></path>
            <polygon id="Shape" fill="#333333" points="276.175532 15.606383 286.56383 15.606383 286.56383 17.4255319 278.593085 27.2154255 286.755319 27.2154255 286.755319 29.2739362 275.553191 29.2739362 275.553191 27.3111702 283.523936 17.6648936 276.175532 17.6648936"></polygon>
            <polygon id="Shape" fill="#333333" points="287.353723 15.606383 298.412234 15.606383 298.412234 17.6648936 294.055851 17.6648936 294.055851 29.2739362 291.662234 29.2739362 291.662234 17.6648936 287.329787 17.6648936 287.329787 15.606383"></polygon>
            <polygon id="Shape" fill="#333333" points="59.8164894 15.606383 63.1914894 15.606383 66.9734043 26.3058511 67.0212766 26.3058511 70.7074468 15.606383 74.0345745 15.606383 74.0345745 29.2739362 71.7606383 29.2739362 71.7606383 18.7180851 71.712766 18.7180851 67.9308511 29.2739362 65.9680851 29.2739362 62.1861702 18.7180851 62.1382979 18.7180851 62.1382979 29.2739362 59.8643617 29.2739362 59.8643617 15.606383"></polygon>
            <path d="M80.5452128,15.606383 L83.0824468,15.606383 L88.3484043,29.2739362 L85.787234,29.2739362 L84.4946809,25.6595745 L79.037234,25.6595745 L77.7446809,29.2739362 L75.2792553,29.2739362 L80.5452128,15.606383 L80.5452128,15.606383 Z M79.7074468,23.8404255 L83.8723404,23.8404255 L81.8138298,17.9521277 L81.7659574,17.9521277 L79.7074468,23.8404255 L79.7074468,23.8404255 Z" id="Shape" fill="#333333"></path>
            <path d="M101.585106,29.2739362 L100.053191,29.2739362 L99.6941489,27.6702128 C98.4015957,29.1303191 97.2526596,29.6090426 95.5771277,29.6090426 C91.4840426,29.6090426 89.018617,26.3537234 89.018617,22.4521277 C89.018617,18.5505319 91.4601064,15.2952128 95.5771277,15.2952128 C98.5691489,15.2952128 101.082447,16.875 101.441489,19.962766 L99.0957447,19.962766 C98.856383,18.1675532 97.3005319,17.2340426 95.5771277,17.2340426 C92.6569149,17.2340426 91.412234,19.8191489 91.412234,22.4521277 C91.412234,25.0851064 92.6329787,27.6702128 95.5771277,27.6702128 C98.018617,27.7180851 99.3590426,26.2340426 99.4069149,23.912234 L95.768617,23.912234 L95.768617,22.0930851 L101.585106,22.0930851 L101.585106,29.2739362 L101.585106,29.2739362 Z" id="Shape" fill="#333333"></path>
            <polygon id="Shape" fill="#333333" points="107.760638 23.912234 102.638298 15.606383 105.414894 15.606383 109.029255 21.7340426 112.595745 15.606383 115.276596 15.606383 110.154255 23.912234 110.154255 29.2739362 107.760638 29.2739362 107.760638 23.912234"></polygon>
            <path d="M118.843085,15.606383 L121.380319,15.606383 L126.646277,29.2739362 L124.085106,29.2739362 L122.792553,25.6595745 L117.335106,25.6595745 L116.042553,29.2739362 L113.577128,29.2739362 L118.843085,15.606383 L118.843085,15.606383 Z M118.005319,23.8404255 L122.170213,23.8404255 L120.111702,17.9521277 L120.06383,17.9521277 L118.005319,23.8404255 L118.005319,23.8404255 Z" id="Shape" fill="#333333"></path>
            <path d="M127.962766,15.606383 L134.49734,15.606383 C137.489362,15.606383 139.021277,16.9946809 139.021277,19.2925532 C139.021277,21.9255319 137.202128,22.5957447 136.771277,22.7393617 L136.771277,22.787234 C137.585106,22.9069149 138.805851,23.5053191 138.805851,25.6835106 C138.805851,27.2632979 139.045213,28.7234043 139.547872,29.2739362 L136.986702,29.2739362 C136.62766,28.6755319 136.62766,27.9335106 136.62766,27.2632979 C136.62766,24.75 136.101064,23.6489362 133.898936,23.6489362 L130.380319,23.6489362 L130.380319,29.2739362 L127.986702,29.2739362 L127.986702,15.606383 L127.962766,15.606383 Z M130.356383,21.8297872 L134.281915,21.8297872 C135.789894,21.8297872 136.62766,21.087766 136.62766,19.6515957 C136.62766,17.9042553 135.50266,17.5691489 134.257979,17.5691489 L130.380319,17.5691489 L130.380319,21.8297872 L130.356383,21.8297872 Z" id="Shape" fill="#333333"></path>
            <polygon id="kereszt" fill="#D8232A" points="15.7511987 0 15.7511987 15.7379679 0 15.7379679 0 29.3582888 15.7511987 29.3582888 15.7511987 45 29.2488013 45 29.2488013 29.3582888 45 29.3582888 45 15.7379679 29.2488013 15.7379679 29.2488013 0"></polygon>
        </g>
    </g>
</svg>